<?xml version="1.0" encoding="utf-8"?>
<!-- Generator: Adobe Illustrator 18.0.0, SVG Export Plug-In . SVG Version: 6.00 Build 0)  -->
<!DOCTYPE svg PUBLIC "-//W3C//DTD SVG 1.1//EN" "http://www.w3.org/Graphics/SVG/1.1/DTD/svg11.dtd">
<svg version="1.1" id="Capa_1" xmlns="http://www.w3.org/2000/svg" xmlns:xlink="http://www.w3.org/1999/xlink" x="0px" y="0px"
	 viewBox="0 0 626 511.7" enable-background="new 0 0 626 511.7" xml:space="preserve">
<g id="wCFgub_1_">
	<g>
		<path fill="#FFFFFF" d="M0,265c11.7-0.1,23.3-0.2,35-0.2c34,0,68,0,102,0c2,0,3.9,0,6.3,0c0,5.3,0,10.1,0,15
			c-1.7,0.1-3,0.3-4.3,0.3c-45.7,0-91.3,0-137,0c-0.7,0-1.3-0.1-2-0.2C0,275,0,270,0,265z"/>
		<path fill="#FFFFFF" d="M626,280c-9.5,0.1-19,0.2-28.4,0.2c-36.1,0-72.2,0-108.3,0c-2,0-3.9,0-6.4,0c0-5.2,0-9.9,0-15
			c1.3-0.1,2.6-0.4,3.9-0.4c45.6,0,91.2,0,136.8,0c0.8,0,1.7,0.1,2.5,0.2C626,270,626,275,626,280z"/>
		<path fill="#FFFFFF" d="M168,511.7c0-121,0-241.5,0-362.8c48.1-32.2,96.5-64.6,145.1-97.1c48.5,32.5,96.7,64.8,144.8,97
			c0,121.1,0,241.9,0,363c-33.9,0-67.5,0-101.9,0c0-39.4,0-78.7,0-118.4c-28.8,0-56.9,0-85.6,0c0,39.5,0,78.7,0,118.4
			C236.1,511.7,202.4,511.7,168,511.7z M287.7,298.4c17.3,0,33.9,0,50.7,0c0-17,0-33.7,0-50.5c-17.1,0-33.8,0-50.7,0
			C287.7,264.9,287.7,281.5,287.7,298.4z M415.1,247.8c-17.1,0-33.7,0-50.5,0c0,17.1,0,33.8,0,50.6c17,0,33.5,0,50.5,0
			C415.1,281.6,415.1,265,415.1,247.8z M287.8,324.5c0,17,0,33.7,0,50.6c17.1,0,33.8,0,50.6,0c0-17.2,0-33.9,0-50.6
			C321.4,324.5,304.8,324.5,287.8,324.5z M415.1,375.1c0-17,0-33.7,0-50.5c-17.1,0-33.8,0-50.7,0c0,17,0,33.5,0,50.5
			C381.4,375.1,398,375.1,415.1,375.1z M364.4,221.6c17.2,0,33.8,0,50.7,0c0-16.9,0-33.6,0-50.5c-17.1,0-33.8,0-50.7,0
			C364.4,188.2,364.4,204.7,364.4,221.6z M338.4,221.6c0-17.2,0-33.7,0-50.4c-17.1,0-33.8,0-50.7,0c0,17.1,0,33.6,0,50.4
			C304.8,221.6,321.5,221.6,338.4,221.6z M211.1,298.4c17.1,0,33.7,0,50.4,0c0-17,0-33.7,0-50.6c-16.9,0-33.5,0-50.4,0
			C211.1,264.8,211.1,281.3,211.1,298.4z M261.6,324.6c-17.2,0-33.7,0-50.4,0c0,17,0,33.6,0,50.4c17,0,33.7,0,50.4,0
			C261.6,358,261.6,341.4,261.6,324.6z M261.7,171.2c-17.1,0-33.8,0-50.5,0c0,17.1,0,33.7,0,50.3c17.1,0,33.7,0,50.5,0
			C261.7,204.7,261.7,188.3,261.7,171.2z"/>
		<path fill="#FFFFFF" d="M482.9,297.5c43.7,0,86.7,0,130,0c0,71.5,0,142.6,0,214.1c-43.4,0-86.4,0-130,0
			C482.9,440.3,482.9,369,482.9,297.5z M573.4,400.5c-17.2,0-33.9,0-50.8,0c0,16.9,0,33.5,0,50.2c17.1,0,33.8,0,50.8,0
			C573.4,433.8,573.4,417.4,573.4,400.5z M522.6,374.7c17.1,0,33.7,0,50.5,0c0-17,0-33.6,0-50.1c-17.1,0-33.7,0-50.5,0
			C522.6,341.5,522.6,357.9,522.6,374.7z"/>
		<path fill="#FFFFFF" d="M13.1,297.4c43.5,0,86.6,0,130.1,0c0,71.5,0,142.8,0,214.3c-43.5,0-86.6,0-130.1,0
			C13.1,440.2,13.1,369.2,13.1,297.4z M103.4,450.8c0-17.2,0-33.7,0-50.3c-17.1,0-33.8,0-50.8,0c0,16.8,0,33.4,0,50.3
			C69.8,450.8,86.5,450.8,103.4,450.8z M52.9,324.5c0,16.9,0,33.5,0,50c17.2,0,33.9,0,50.4,0c0-16.9,0-33.3,0-50
			C86.3,324.5,69.8,324.5,52.9,324.5z"/>
		<path fill="#FFFFFF" d="M111.5,134.3C179,89.3,245.8,44.8,313.1,0c67.1,44.7,134.1,89.3,201.1,133.9c-0.1,0.3-0.2,0.6-0.3,0.9
			c-15.2,0-30.4,0-46.6,0c-10.7-7.2-22.3-14.9-33.9-22.7c-24-16.1-48.1-32.1-72.1-48.2c-12.3-8.2-24.8-16.2-36.8-24.9
			c-8.4-6-15.2-5.1-22.7,0.1c-17.8,12.5-36.2,24.2-54.3,36.3c-20.5,13.7-40.9,27.4-61.3,41.1c-8.6,5.7-17.1,11.5-25.7,17.2
			c-1.2,0.8-2.7,1.3-4.1,1.3c-14.2,0.1-28.3,0-42.5,0C113.5,135.1,113,134.9,111.5,134.3z"/>
	</g>
</g>
</svg>
